<svg xmlns="http://www.w3.org/2000/svg" width="16" height="16" viewBox="0 0 16 16">
  <path id="activity-icon4" d="M.469,16A.469.469,0,0,1,0,15.531v-.5a.937.937,0,0,1,.937-.938v-.56a1.347,1.347,0,0,1,1.346-1.346H7.154A1.347,1.347,0,0,1,8.5,13.533v.56a.937.937,0,0,1,.938.938v.5A.469.469,0,0,1,8.969,16Zm13.845-1.477-2.821-3.744,1.5-1.128,2.821,3.744a.938.938,0,1,1-1.5,1.128Zm-8.447-4.2L3.046,6.579a.937.937,0,1,1,1.5-1.128L7.364,9.195a.938.938,0,1,1-1.5,1.129Zm4.451-1.1a6.333,6.333,0,0,0,.8-.5,6.308,6.308,0,0,0,.7-.627l.611.811-1.5,1.128ZM5.061,4.581A5.234,5.234,0,0,1,8.8,1.76l3.282,4.356a5.084,5.084,0,0,1-1.538,1.853,5.085,5.085,0,0,1-2.205.968Zm7.544.665L9.784,1.5a.937.937,0,1,1,1.5-1.128L14.1,4.117a.938.938,0,1,1-1.5,1.128Z" transform="translate(0 0)" fill="#afb4be"/>
</svg>
