<svg xmlns="http://www.w3.org/2000/svg" width="16" height="16" viewBox="0 0 16 16">
  <path id="activity-icon2" d="M17.222,5.444H15.444a4.444,4.444,0,0,0-8.889,0H4.778A1.775,1.775,0,0,0,3.009,7.222l-.009,8A1.783,1.783,0,0,0,4.778,17H17.222A1.783,1.783,0,0,0,19,15.222v-8A1.783,1.783,0,0,0,17.222,5.444ZM11,2.778a2.663,2.663,0,0,1,2.667,2.667H8.333A2.663,2.663,0,0,1,11,2.778Zm0,8.889A4.446,4.446,0,0,1,6.556,7.222H8.333a2.667,2.667,0,0,0,5.333,0h1.778A4.446,4.446,0,0,1,11,11.667Z" transform="translate(-3 -1)" fill="#afb4be"/>
</svg>
