<svg xmlns="http://www.w3.org/2000/svg" width="16" height="16" viewBox="0 0 16 16">
  <path id="activity-icon1" d="M.471,16A.47.47,0,0,1,0,15.531V13.969A6.971,6.971,0,0,1,2.068,9,7.045,7.045,0,0,1,4.5,7.41a4.586,4.586,0,0,0,4.585.3,4.181,4.181,0,0,0-.618,2.193,4.238,4.238,0,0,0,5.646,3.978c0,.028,0,.056,0,.085v1.563a.47.47,0,0,1-.471.469ZM9.412,9.906a3.294,3.294,0,1,1,3.294,3.281A3.291,3.291,0,0,1,9.412,9.906Zm1.882,0a.47.47,0,0,0,.471.469h.471v.469a.471.471,0,0,0,.941,0v-.469h.471a.469.469,0,1,0,0-.937h-.471V8.969a.471.471,0,0,0-.941,0v.469h-.471A.47.47,0,0,0,11.294,9.906ZM3.42,3.625A3.639,3.639,0,1,1,7.059,7.25,3.636,3.636,0,0,1,3.42,3.625Z" fill="#afb4be"/>
</svg>
