<svg xmlns="http://www.w3.org/2000/svg" width="15" height="15" viewBox="0 0 15 15">
  <path id="btn-tiktok" d="M7.5,0A7.5,7.5,0,1,0,15,7.5,7.5,7.5,0,0,0,7.5,0Zm3.763,5.738V6.754a3.544,3.544,0,0,1-2.168-.737L9.1,9.143a2.618,2.618,0,0,1-.785,1.863,2.673,2.673,0,0,1-1.493.747,2.752,2.752,0,0,1-.4.03,2.682,2.682,0,0,1-1.644-.556,2.727,2.727,0,0,1-.253-.221A2.628,2.628,0,0,1,4.4,7.382a2.682,2.682,0,0,1,2.015-.9,2.752,2.752,0,0,1,.4.03v1.42a1.264,1.264,0,1,0,.87,1.2l0-2.093V3.217h1.4a2.165,2.165,0,0,0,2.166,2.145h0v.377Z" fill="#fff"/>
</svg>
