<svg xmlns="http://www.w3.org/2000/svg" width="15" height="15" viewBox="0 0 15 15">
  <path id="btn-save" d="M5.75,4.679V2h5.357V4.679a.536.536,0,0,1-.536.536H6.286A.536.536,0,0,1,5.75,4.679ZM5.214,17h8.571V15.157H5.214Zm0-2.914h8.571V13.014H5.214Zm11.25-8.5-2.48-3.005A1.607,1.607,0,0,0,12.746,2h-.568V4.679a1.607,1.607,0,0,1-1.607,1.607H6.286A1.607,1.607,0,0,1,4.679,4.679V2H3.607A1.607,1.607,0,0,0,2,3.607V15.393A1.607,1.607,0,0,0,3.607,17h.536V11.643A1.607,1.607,0,0,1,5.75,10.036h7.5a1.607,1.607,0,0,1,1.607,1.607V17h.536A1.607,1.607,0,0,0,17,15.393V6.779a1.607,1.607,0,0,0-.536-1.189ZM13.25,11.107H5.75a.536.536,0,0,0-.536.536v.3h8.571v-.3A.536.536,0,0,0,13.25,11.107Z" transform="translate(-2 -2)" fill="#fff"/>
</svg>
