<svg xmlns="http://www.w3.org/2000/svg" width="13" height="13" viewBox="0 0 13 13">
  <path id="btn-buy-now-icon" d="M14.556,4.611H13.111a3.611,3.611,0,0,0-7.222,0H4.444A1.443,1.443,0,0,0,3.007,6.056L3,12.556A1.449,1.449,0,0,0,4.444,14H14.556A1.449,1.449,0,0,0,16,12.556v-6.5A1.449,1.449,0,0,0,14.556,4.611ZM9.5,2.444a2.164,2.164,0,0,1,2.167,2.167H7.333A2.164,2.164,0,0,1,9.5,2.444Zm0,7.222A3.612,3.612,0,0,1,5.889,6.056H7.333a2.167,2.167,0,0,0,4.333,0h1.444A3.612,3.612,0,0,1,9.5,9.667Z" transform="translate(-3 -1)" fill="#939cac"/>
</svg>
