<svg xmlns="http://www.w3.org/2000/svg" width="15" height="15" viewBox="0 0 15 15">
  <path id="btn-fb" d="M7.5,0A7.5,7.5,0,1,0,15,7.5,7.5,7.5,0,0,0,7.5,0ZM9.634,4.881c0,.141-.059.2-.2.2-.265,0-.531,0-.8.011s-.409.131-.409.408c-.006.3,0,.586,0,.888H9.368c.162,0,.217.055.217.218v1.19c0,.161-.051.211-.214.212H8.222v3.211c0,.172-.053.226-.223.226H6.764c-.149,0-.207-.058-.207-.207V8.01H5.576c-.154,0-.209-.056-.209-.211V6.6c0-.154.058-.212.21-.212h.98V5.526a2.16,2.16,0,0,1,.269-1.111,1.629,1.629,0,0,1,.881-.732,2.162,2.162,0,0,1,.755-.13h.97c.139,0,.2.061.2.2,0,.38,0,.756,0,1.131Z" fill="#fff"/>
</svg>
