<svg xmlns="http://www.w3.org/2000/svg" width="15" height="15" viewBox="0 0 15 15">
  <path id="btn-twitter" d="M7.5,0A7.5,7.5,0,1,0,15,7.5,7.509,7.509,0,0,0,7.5,0Zm3.346,5.783c0,.074.005.149.005.224a4.91,4.91,0,0,1-7.558,4.136,3.486,3.486,0,0,0,2.556-.715,1.728,1.728,0,0,1-1.613-1.2A1.733,1.733,0,0,0,5.016,8.2,1.727,1.727,0,0,1,3.631,6.508c0-.007,0-.015,0-.022a1.719,1.719,0,0,0,.782.216,1.729,1.729,0,0,1-.534-2.3A4.9,4.9,0,0,0,7.437,6.2a1.727,1.727,0,0,1,2.942-1.575,3.446,3.446,0,0,0,1.1-.419,1.734,1.734,0,0,1-.76.955,3.432,3.432,0,0,0,.992-.272,3.472,3.472,0,0,1-.86.892Z" fill="#fff"/>
</svg>
