<svg xmlns="http://www.w3.org/2000/svg" width="20" height="20" viewBox="0 0 20 20">
  <path id="btn-login" d="M13.958,20A1.493,1.493,0,0,1,12.5,18.478V15.435a1.493,1.493,0,0,1,1.458-1.522h.208v-1.3a2.085,2.085,0,1,1,4.167,0v1.3h.208A1.493,1.493,0,0,1,20,15.435v3.043A1.493,1.493,0,0,1,18.542,20Zm1.458-7.391v1.3h1.667v-1.3a.834.834,0,1,0-1.667,0ZM.625,18.261A.639.639,0,0,1,0,17.609V14.565a4.052,4.052,0,0,1,3.958-4.13h7.083a3.824,3.824,0,0,1,2.2.7,3.562,3.562,0,0,0-.326,1.474v.218a2.834,2.834,0,0,0-1.667,2.609v2.826ZM3.333,4.348A4.26,4.26,0,0,1,7.5,0a4.26,4.26,0,0,1,4.167,4.348A4.26,4.26,0,0,1,7.5,8.7,4.26,4.26,0,0,1,3.333,4.348Z" fill="#fff"/>
</svg>
