<svg xmlns="http://www.w3.org/2000/svg" width="22" height="20" viewBox="0 0 22 20">
  <path id="btn-contact" d="M9.9,20V17.778h8.8V9.889a7.7,7.7,0,1,0-15.4,0v6.778H2.2A2.218,2.218,0,0,1,0,14.444V12.222a2.19,2.19,0,0,1,1.1-1.911,9.907,9.907,0,1,1,19.8-.067,2.049,2.049,0,0,1,1.1,1.8V14.6a2.055,2.055,0,0,1-1.1,1.822v1.356A2.218,2.218,0,0,1,18.7,20Zm3.3-8.889a1.1,1.1,0,1,1,1.1,1.111A1.106,1.106,0,0,1,13.2,11.111Zm-6.6,0a1.1,1.1,0,1,1,1.1,1.111A1.1,1.1,0,0,1,6.6,11.111Zm4.455-7.778A6.666,6.666,0,0,1,17.6,8.922,8.832,8.832,0,0,1,9.768,3.956,8.952,8.952,0,0,1,4.422,10.5,6.689,6.689,0,0,1,11.055,3.333Z" fill="#fff"/>
</svg>
