<svg xmlns="http://www.w3.org/2000/svg" width="19.996" height="20" viewBox="0 0 19.996 20">
  <path id="btn-instagram" d="M5.875,19.941a7.328,7.328,0,0,1-2.426-.465A5.122,5.122,0,0,1,.523,16.55a7.307,7.307,0,0,1-.465-2.426C.011,13.057,0,12.717,0,10S.011,6.947.062,5.876A7.327,7.327,0,0,1,.527,3.45,4.924,4.924,0,0,1,1.679,1.68,4.879,4.879,0,0,1,3.453.523,7.31,7.31,0,0,1,5.879.059C6.946.012,7.286,0,10,0s3.055.012,4.126.063a7.326,7.326,0,0,1,2.426.465A5.123,5.123,0,0,1,19.48,3.454a7.309,7.309,0,0,1,.465,2.426h0C19.991,6.947,20,7.287,20,10s-.012,3.055-.059,4.122a7.333,7.333,0,0,1-.465,2.426,5.116,5.116,0,0,1-2.926,2.926,7.306,7.306,0,0,1-2.426.465C13.053,19.988,12.713,20,10,20S6.942,19.988,5.875,19.941ZM5.969,1.875a5.5,5.5,0,0,0-1.856.344,3.1,3.1,0,0,0-1.149.746,3.04,3.04,0,0,0-.75,1.149A5.479,5.479,0,0,0,1.871,5.97c-.047,1.051-.059,1.371-.059,4.04s.012,2.985.059,4.04a5.5,5.5,0,0,0,.344,1.856,3.109,3.109,0,0,0,.746,1.149,3.077,3.077,0,0,0,1.149.746,5.478,5.478,0,0,0,1.856.344c1.051.047,1.371.059,4.04.059s2.985-.012,4.04-.059A5.5,5.5,0,0,0,15.9,17.8a3.318,3.318,0,0,0,1.9-1.9,5.482,5.482,0,0,0,.344-1.856h0c.047-1.055.059-1.367.059-4.036s-.012-2.985-.059-4.04A5.505,5.505,0,0,0,17.8,4.114a3.109,3.109,0,0,0-.746-1.149A3.076,3.076,0,0,0,15.9,2.219a5.482,5.482,0,0,0-1.856-.344c-1.051-.047-1.367-.059-4.04-.059S7.024,1.829,5.969,1.875ZM4.863,10A5.138,5.138,0,1,1,10,15.14,5.139,5.139,0,0,1,4.863,10Zm1.805,0A3.333,3.333,0,1,0,10,6.669,3.333,3.333,0,0,0,6.668,10Zm7.474-5.341a1.2,1.2,0,1,1,1.2,1.2A1.2,1.2,0,0,1,14.143,4.661Z" fill="#fff"/>
</svg>
