<svg xmlns="http://www.w3.org/2000/svg" width="21" height="20" viewBox="0 0 21 20">
  <path id="btn-help" d="M9.167,19.74a.912.912,0,0,1,0-1.264l.66-.675a.863.863,0,0,1,1.237,0,.913.913,0,0,1,0,1.264l-.66.675a.867.867,0,0,1-1.237,0ZM6.216,17.994a.913.913,0,0,1-.009-1.254l.009-.01.66-.675a.861.861,0,0,1,.619-.262.9.9,0,0,1,.619,1.526l-.661.675a.863.863,0,0,1-1.237,0ZM12.28,16.78l-.017.021a2.4,2.4,0,0,0-2.433-.759A2.443,2.443,0,0,0,7.5,14.216a2.462,2.462,0,0,0-2.1-2.28A2.428,2.428,0,0,0,1.809,9.61,5.6,5.6,0,0,1,1.567,1.6a5.322,5.322,0,0,1,7.841.255L7.5,3.811l1.53,1.563a3.446,3.446,0,0,0,4.337.5l4.658,4.76a.91.91,0,0,1,0,1.264.866.866,0,0,1-1.237,0L13.349,8.382,12.256,9.5l3.437,3.513a.884.884,0,0,1-1.237,1.264l-3.437-3.513L9.927,11.878,13.4,15.431l0,0A.884.884,0,0,1,12.28,16.78ZM3.553,15.061a.9.9,0,0,1,.256-.632l.754-.77.009.006a.865.865,0,0,1,1.135.09.906.906,0,0,1,.238.816.892.892,0,0,1-.238.449l-.582.6a.912.912,0,0,1-.7.341H4.412A.889.889,0,0,1,3.553,15.061ZM1.712,11.81l.66-.675a.863.863,0,0,1,1.237,0,.908.908,0,0,1,0,1.264l-.66.675a.9.9,0,0,1-.618.266A.9.9,0,0,1,1.712,11.81ZM13.426,3.7l-.546.558a1.923,1.923,0,0,1-2.759,0l-.438-.447L11.842,1.6a5.294,5.294,0,0,1,7.592,0,5.6,5.6,0,0,1-.235,8C19.049,9.439,13.717,4,13.426,3.7Z" transform="translate(0)" fill="#fff"/>
</svg>
