<svg xmlns="http://www.w3.org/2000/svg" xmlns:xlink="http://www.w3.org/1999/xlink" width="13" height="13" viewBox="0 0 13 13">
  <defs>
    <linearGradient id="linear-gradient" y1="0.528" x2="1" y2="0.528" gradientUnits="objectBoundingBox">
      <stop offset="0" stop-color="#ff0076"/>
      <stop offset="1" stop-color="#6a16f9"/>
    </linearGradient>
  </defs>
  <path id="collection" d="M3.3,4.6H2v9.1A1.3,1.3,0,0,0,3.3,15h9.1V13.7H3.3ZM13.7,2H5.9A1.3,1.3,0,0,0,4.6,3.3v7.8a1.3,1.3,0,0,0,1.3,1.3h7.8A1.3,1.3,0,0,0,15,11.1V3.3A1.3,1.3,0,0,0,13.7,2Zm0,9.1H5.9V3.3h7.8ZM9.15,9.8h1.3V7.85H12.4V6.55H10.45V4.6H9.15V6.55H7.2v1.3H9.15Z" transform="translate(-2 -2)" fill="url(#linear-gradient)"/>
</svg>
