<svg xmlns="http://www.w3.org/2000/svg" width="16" height="16" viewBox="0 0 16 16">
  <path id="create-icon" d="M3.555,16a.889.889,0,1,1,0-1.778h8a2.668,2.668,0,0,0,2.667-2.667v-8a.889.889,0,1,1,1.778,0v8A4.45,4.45,0,0,1,11.555,16Zm-.889-3.555A2.675,2.675,0,0,1,0,9.778V2.666A2.674,2.674,0,0,1,2.666,0H9.778a2.675,2.675,0,0,1,2.667,2.666V9.778a2.676,2.676,0,0,1-2.667,2.667Zm.889-6.222a.89.89,0,0,0,.89.889h.889V8A.889.889,0,0,0,7.111,8V7.111H8A.889.889,0,0,0,8,5.334H7.111V4.445a.889.889,0,1,0-1.778,0v.889H4.445A.889.889,0,0,0,3.555,6.222Z" fill="#fff"/>
</svg>
