<svg xmlns="http://www.w3.org/2000/svg" xmlns:xlink="http://www.w3.org/1999/xlink" width="13" height="13" viewBox="0 0 13 13">
  <defs>
    <clipPath id="clip-path">
      <rect id="Rectangle_370" data-name="Rectangle 370" width="13" height="13" transform="translate(2950 -6091)" fill="#fff"/>
    </clipPath>
    <linearGradient id="linear-gradient" y1="0.5" x2="1" y2="0.5" gradientUnits="objectBoundingBox">
      <stop offset="0" stop-color="#ff0076"/>
      <stop offset="1" stop-color="#6a16f9"/>
    </linearGradient>
  </defs>
  <g id="create" transform="translate(-2950 6091)" clip-path="url(#clip-path)">
    <path id="Path_29527" data-name="Path 29527" d="M13.7,5.3H8.5L7.2,4H3.3A1.29,1.29,0,0,0,2.007,5.3L2,13.1a1.3,1.3,0,0,0,1.3,1.3H13.7A1.3,1.3,0,0,0,15,13.1V6.6A1.3,1.3,0,0,0,13.7,5.3Zm0,7.8H3.3V5.3H6.66l1.3,1.3H13.7ZM8.5,10.5H9.8v1.3h1.3V10.5h1.3V9.2H11.1V7.9H9.8V9.2H8.5Z" transform="translate(2948 -6093.7)" fill="url(#linear-gradient)"/>
  </g>
</svg>
