<svg xmlns="http://www.w3.org/2000/svg" width="20" height="20" viewBox="0 0 20 20">
  <path id="discover" d="M18.878,16.9a4.9,4.9,0,0,0,.683-2.4,4.392,4.392,0,1,0-8.78,0,4.428,4.428,0,0,0,4.39,4.5,4.614,4.614,0,0,0,2.341-.7l3.122,3.2L22,20.1Zm-3.707.1a2.5,2.5,0,1,1,2.439-2.5A2.446,2.446,0,0,1,15.171,17Zm-3.415,3v2A9.884,9.884,0,0,1,2,12,9.884,9.884,0,0,1,11.756,2a9.828,9.828,0,0,1,9.561,8H19.3a7.941,7.941,0,0,0-4.615-5.41V5a1.982,1.982,0,0,1-1.951,2H10.78V9A.991.991,0,0,1,9.8,10H7.854v2H9.8v3H8.829L4.156,10.21a8.311,8.311,0,0,0-.2,1.79A7.915,7.915,0,0,0,11.756,20Z" transform="translate(-2 -2)" fill="#fff"/>
</svg>
