<svg xmlns="http://www.w3.org/2000/svg" xmlns:xlink="http://www.w3.org/1999/xlink" width="12" height="20" viewBox="0 0 12 20">
  <defs>
    <clipPath id="clip-path">
      <rect id="Rectangle_309" data-name="Rectangle 309" width="12" height="20" transform="translate(4258 -5094)" fill="#fff" stroke="#707070" stroke-width="1"/>
    </clipPath>
    <clipPath id="clip-path-2">
      <path id="Path_29304" data-name="Path 29304" d="M720.6,306.4h12.2v6.379H720.6Z" transform="translate(-720.6 -306.4)" fill="#fff"/>
    </clipPath>
    <clipPath id="clip-path-3">
      <path id="Path_29306" data-name="Path 29306" d="M720.6,0h6.1V13.726h-6.1Z" transform="translate(-720.6)" fill="#fff"/>
    </clipPath>
    <clipPath id="clip-path-4">
      <path id="Path_29308" data-name="Path 29308" d="M975,0h6.1V13.726H975Z" transform="translate(-975)" fill="#fff"/>
    </clipPath>
    <clipPath id="clip-path-5">
      <path id="Path_29310" data-name="Path 29310" d="M720.6,470.3h6.1v8.594h-6.1Z" transform="translate(-720.6 -470.3)" fill="#fff"/>
    </clipPath>
    <clipPath id="clip-path-6">
      <path id="Path_29312" data-name="Path 29312" d="M975,470.3h6.1v8.594H975Z" transform="translate(-975 -470.3)" fill="#fff"/>
    </clipPath>
  </defs>
  <g id="eth" transform="translate(-4258 5094)" clip-path="url(#clip-path)">
    <g id="Group_3931" data-name="Group 3931" transform="translate(4257.993 -5094)">
      <g id="Group_3922" data-name="Group 3922" transform="translate(0 7.348)" opacity="0.6">
        <g id="Group_3921" data-name="Group 3921" transform="translate(0 0)" clip-path="url(#clip-path-2)">
          <path id="Path_29303" data-name="Path 29303" d="M726.7,306.4l-6.1,2.775,6.1,3.6,6.1-3.6Z" transform="translate(-720.6 -306.4)" fill="#fff"/>
        </g>
      </g>
      <g id="Group_3924" data-name="Group 3924" transform="translate(0 0)" opacity="0.45">
        <g id="Group_3923" data-name="Group 3923" transform="translate(0)" clip-path="url(#clip-path-3)">
          <path id="Path_29305" data-name="Path 29305" d="M720.6,10.122l6.1,3.6V0Z" transform="translate(-720.6)" fill="#fff"/>
        </g>
      </g>
      <g id="Group_3926" data-name="Group 3926" transform="translate(6.101 0)" opacity="0.8">
        <g id="Group_3925" data-name="Group 3925" transform="translate(0)" clip-path="url(#clip-path-4)">
          <path id="Path_29307" data-name="Path 29307" d="M975,0V13.726l6.1-3.6Z" transform="translate(-975)" fill="#fff"/>
        </g>
      </g>
      <g id="Group_3928" data-name="Group 3928" transform="translate(0 11.278)" opacity="0.45">
        <g id="Group_3927" data-name="Group 3927" transform="translate(0 0)" clip-path="url(#clip-path-5)">
          <path id="Path_29309" data-name="Path 29309" d="M720.6,470.3l6.1,8.594V473.9Z" transform="translate(-720.6 -470.3)" fill="#fff"/>
        </g>
      </g>
      <g id="Group_3930" data-name="Group 3930" transform="translate(6.101 11.278)" opacity="0.8">
        <g id="Group_3929" data-name="Group 3929" transform="translate(0 0)" clip-path="url(#clip-path-6)">
          <path id="Path_29311" data-name="Path 29311" d="M975,473.9v4.99l6.1-8.595Z" transform="translate(-975 -470.3)" fill="#fff"/>
        </g>
      </g>
    </g>
  </g>
</svg>
