<svg xmlns="http://www.w3.org/2000/svg" xmlns:xlink="http://www.w3.org/1999/xlink" width="13" height="13" viewBox="0 0 13 13">
  <defs>
    <linearGradient id="linear-gradient" y1="0.5" x2="1" y2="0.5" gradientUnits="objectBoundingBox">
      <stop offset="0" stop-color="#ff0076"/>
      <stop offset="1" stop-color="#6a16f9"/>
    </linearGradient>
  </defs>
  <path id="facebook" d="M310.1,389.36h-7.668a2.672,2.672,0,0,0-2.666,2.666v7.668a2.674,2.674,0,0,0,2.666,2.666H310.1a2.674,2.674,0,0,0,2.666-2.666v-7.668A2.672,2.672,0,0,0,310.1,389.36Zm-1.623,3.736h-1.383a.279.279,0,0,0-.279.276v.829h1.658l-.276,1.659h-1.382v4.423h-1.653V395.86h-1.107V394.2h1.106v-.829a1.937,1.937,0,0,1,1.933-1.935h1.383Z" transform="translate(-299.763 -389.36)" fill="url(#linear-gradient)"/>
</svg>
