<svg id="instagram" xmlns="http://www.w3.org/2000/svg" xmlns:xlink="http://www.w3.org/1999/xlink" width="13" height="13" viewBox="0 0 13 13">
  <defs>
    <linearGradient id="linear-gradient" y1="0.518" x2="1" y2="0.524" gradientUnits="objectBoundingBox">
      <stop offset="0" stop-color="#ff0076"/>
      <stop offset="1" stop-color="#6a16f9"/>
    </linearGradient>
  </defs>
  <g id="Group_2969" data-name="Group 2969" transform="translate(0 0)">
    <path id="Path_26364" data-name="Path 26364" d="M9.75,0H3.25A3.259,3.259,0,0,0,0,3.25v6.5A3.26,3.26,0,0,0,3.25,13h6.5A3.26,3.26,0,0,0,13,9.75V3.25A3.259,3.259,0,0,0,9.75,0ZM6.5,9.208A2.708,2.708,0,1,1,9.208,6.5,2.708,2.708,0,0,1,6.5,9.208Zm3.521-5.417a.812.812,0,1,1,.813-.812A.812.812,0,0,1,10.021,3.792Z" fill="url(#linear-gradient)"/>
  </g>
</svg>
