<svg id="instagram-round" xmlns="http://www.w3.org/2000/svg" width="18.978" height="18.978" viewBox="0 0 18.978 18.978">
  <g id="Group_2969" data-name="Group 2969" transform="translate(0 0)">
    <path id="Path_26364" data-name="Path 26364" d="M14.234,0H4.745A4.758,4.758,0,0,0,0,4.745v9.489a4.759,4.759,0,0,0,4.745,4.745h9.489a4.759,4.759,0,0,0,4.745-4.745V4.745A4.758,4.758,0,0,0,14.234,0ZM9.489,13.443a3.954,3.954,0,1,1,3.954-3.954A3.954,3.954,0,0,1,9.489,13.443Zm5.14-7.907a1.186,1.186,0,1,1,1.186-1.186A1.186,1.186,0,0,1,14.629,5.535Z" fill="#fff"/>
  </g>
</svg>
