<svg xmlns="http://www.w3.org/2000/svg" width="13" height="13" viewBox="0 0 13 13">
  <path id="judge-icon" d="M.381,13A.381.381,0,0,1,0,12.619v-.406a.762.762,0,0,1,.762-.762V11A1.1,1.1,0,0,1,1.855,9.9H5.813A1.1,1.1,0,0,1,6.906,11v.455a.762.762,0,0,1,.762.762v.406A.381.381,0,0,1,7.287,13ZM11.63,11.8,9.338,8.758l1.217-.917,2.292,3.042a.762.762,0,1,1-1.217.917ZM4.767,8.388,2.475,5.346a.762.762,0,1,1,1.217-.917L5.983,7.471a.762.762,0,1,1-1.217.917Zm3.616-.9a5.145,5.145,0,0,0,.647-.408,5.125,5.125,0,0,0,.57-.509l.5.659L8.879,8.15ZM4.112,3.722A4.253,4.253,0,0,1,7.154,1.43L9.821,4.969a4.131,4.131,0,0,1-1.25,1.506,4.132,4.132,0,0,1-1.792.787Zm6.13.54L7.95,1.22A.762.762,0,1,1,9.166.3l2.292,3.042a.762.762,0,1,1-1.217.917Z" fill="#fff"/>
</svg>
