<svg xmlns="http://www.w3.org/2000/svg" width="15" height="15" viewBox="0 0 15 15">
  <path id="love" d="M12.875,3A4.35,4.35,0,0,0,9.5,4.708,4.35,4.35,0,0,0,6.125,3,4.28,4.28,0,0,0,2,7.5c0,3.09,2.55,5.608,6.412,9.433L9.5,18l1.088-1.079C14.45,13.1,17,10.586,17,7.5A4.28,4.28,0,0,0,12.875,3Zm-3.3,12.711-.075.082-.075-.082C5.855,12.188,3.5,9.858,3.5,7.5A2.686,2.686,0,0,1,6.125,4.635,2.939,2.939,0,0,1,8.8,6.564h1.4a2.922,2.922,0,0,1,2.67-1.929A2.686,2.686,0,0,1,15.5,7.5C15.5,9.858,13.145,12.188,9.575,15.711Z" transform="translate(-2 -3)" fill="#ff0076"/>
</svg>
