<svg xmlns="http://www.w3.org/2000/svg" width="13" height="3.25" viewBox="0 0 13 3.25">
  <path id="option-icon" d="M-6272.774-1051.226a1.625,1.625,0,0,1,0-2.3,1.625,1.625,0,0,1,2.3,0,1.626,1.626,0,0,1,0,2.3,1.62,1.62,0,0,1-1.149.476A1.619,1.619,0,0,1-6272.774-1051.226Zm-4.875,0a1.625,1.625,0,0,1,0-2.3,1.625,1.625,0,0,1,2.3,0,1.625,1.625,0,0,1,0,2.3,1.618,1.618,0,0,1-1.149.476A1.619,1.619,0,0,1-6277.649-1051.226Zm-4.875,0a1.625,1.625,0,0,1,0-2.3,1.625,1.625,0,0,1,2.3,0,1.625,1.625,0,0,1,0,2.3,1.618,1.618,0,0,1-1.149.476A1.62,1.62,0,0,1-6282.524-1051.226Z" transform="translate(6283 1054)" fill="#a5afc1"/>
</svg>
