<svg id="pinterest" xmlns="http://www.w3.org/2000/svg" width="18.978" height="18.978" viewBox="0 0 18.978 18.978">
  <g id="Group_2970" data-name="Group 2970">
    <path id="Path_26365" data-name="Path 26365" d="M14.218,0H4.745A4.767,4.767,0,0,0,0,4.76v9.474a4.763,4.763,0,0,0,4.745,4.745h9.474a4.77,4.77,0,0,0,4.76-4.76V4.76A4.77,4.77,0,0,0,14.218,0ZM10.438,12.125a2.033,2.033,0,0,1-1.717-.843s-.407,1.566-.5,1.868a7.417,7.417,0,0,1-1.265,2.229.093.093,0,0,1-.166-.045,7.826,7.826,0,0,1,.015-2.591c.136-.557.9-3.705.9-3.705a2.531,2.531,0,0,1-.226-1.069c0-1.009.6-1.762,1.356-1.762A.929.929,0,0,1,9.79,7.23a14.2,14.2,0,0,1-.618,2.41,1.063,1.063,0,0,0,1.115,1.31c1.325,0,2.229-1.657,2.229-3.615,0-1.491-1.039-2.606-2.922-2.606A3.283,3.283,0,0,0,6.13,7.983,1.951,1.951,0,0,0,6.6,9.323c.136.151.151.211.105.377-.03.12-.105.422-.151.542a.236.236,0,0,1-.346.166A2.611,2.611,0,0,1,4.775,7.8c0-1.928,1.687-4.247,5.016-4.247a4.144,4.144,0,0,1,4.443,3.9C14.218,10.137,12.7,12.125,10.438,12.125Z" fill="#fff"/>
  </g>
</svg>
