<svg xmlns="http://www.w3.org/2000/svg" width="66" height="66" viewBox="0 0 66 66">
  <g id="play2" transform="translate(-995 -302.309)">
    <rect id="bg" width="66" height="66" rx="33" transform="translate(995 302.309)" fill="#fff"/>
    <rect id="bg-2" data-name="bg" width="46" height="46" rx="23" transform="translate(1005 312.309)" fill="#ff0076" opacity="0.03"/>
    <g id="bg-3" data-name="bg" transform="translate(1000 307.309)" fill="none" stroke="#ff0076" stroke-width="1" opacity="0.03">
      <rect width="56" height="56" rx="28" stroke="none"/>
      <rect x="0.5" y="0.5" width="55" height="55" rx="27.5" fill="none"/>
    </g>
    <g id="icon" transform="translate(1041 323.309) rotate(90)" fill="#fff">
      <path d="M 18.68513679504395 16.5 L 6.31486701965332 16.5 L 12.50000190734863 6.603773593902588 L 18.68513679504395 16.5 Z" stroke="none"/>
      <path d="M 12.5 1.773591995239258 C 13.15216541290283 1.773591995239258 13.80432987213135 2.086925506591797 14.19600009918213 2.713590621948242 L 23.08749961853027 16.94000053405762 C 23.92005920410156 18.2721004486084 22.96237945556641 20 21.39150047302246 20 L 3.608499526977539 20 C 2.037620544433594 20 1.079940795898438 18.2721004486084 1.912500381469727 16.94000053405762 L 10.80399990081787 2.713590621948242 C 11.19567012786865 2.086925506591797 11.84783458709717 1.773591995239258 12.5 1.773591995239258 Z" stroke="none" fill="#ff0076"/>
    </g>
  </g>
</svg>
