<svg class="preloader-svg" xmlns="http://www.w3.org/2000/svg" x="0px" y="0px" width="100.501px" height="143.878px" viewBox="0 0 100.501 143.878" enable-background="new 0 0 100.501 143.878" xml:space="preserve"><path stroke-width="0.5" stroke-miterlimit="10" d="M89.949,118.698 c0.042-4.482,8.514-30.496,8.613-31.411c1.436-13.278-3.956-36.775-5.181-40.891c-2.604-8.751-13.062-27.06-22.281-27.938 c-1.144-0.109-2.154-0.062-3.211,0.647c-1,0.671-2.358,0.339-2.907-0.733c-1.374-2.683-2.747-5.365-4.121-8.047 c-1.301-2.541-2.493-5.229-5.255-6.586c-8.914-4.378-13.782,2.161-14.7,4.279c-1.324,3.056-3.651,10.794,8.191,14.981 c3.753,1.327,8.941,2.81,12.194,5.005c0.123,0.083,0.24,0.175,0.346,0.28c1.123,1.131,0.184,2.447-0.597,3.469 c-2.078,2.722-9.297,11.091-8.091,15.686c1.885,7.178,10.434,1.775,10.434,4.826c0,5.901-13.954,12.39-3.58,30.721 c1.242,2.194,10.822,17.593,15.072,27.099c0.819,1.831,3.427,6.636,5.658,10.463c0.93,1.596,3.373,0.933,3.368-0.914 c-0.021-8.159,0.177-22.412,1.653-30.459c1.433-7.801,1.175-17.477-1.043-26.606c-1.996-8.219-5.869-17.607-3.535-18.038 c2.246-0.415,5.398,12.596,5.861,14.833c3.23,15.644,2.199,21.262,0,37.084c-1.541,11.089-2.779,24.105,1.196,34.571 c1.152,3.034,0.782,10.586,3.349,11.883c2.016,1.017,6.693,0.921,8.136,0C103.503,140.358,89.907,123.067,89.949,118.698z"></path><path stroke-width="0.5" stroke-miterlimit="10" d="M58.724,30.016 c0.596,2.555-3.898,7.915-6.021,8.673c-1.438,0.513-20.174,0.624-29.804-2.293C10.951,32.778,6.033,25.032,3.781,20.532 c-1.589-3.176-1.809-7.773,0.899-10.072c2.069-1.757,9.382-1.949,10.563-2.006c1.566-0.075,6.741-0.691,8.255-1.105 c5.744-1.573,19.467-9.333,20.584-6.472c0.65,1.666-3.445,3.637-4.564,5.478c-1.043,1.711-0.641,6.168-0.848,6.753 c-0.172,0.482-0.635,0.79-1.075,1.05c-1.968,1.162-7.101-1.271-9.294-0.63c-2.876,0.84-9.276,4.72-8.141,7.675 C22.171,26.441,58.099,27.331,58.724,30.016z"></path><path stroke-width="0.5" stroke-miterlimit="10" d="M57.74,82.986 C43.682,60.344,23.089,43.411,22.266,43.273c-1.498-0.252-3.112-0.489-4.477,0.18c-1.831,0.897-2.312,3.166-3.078,5.055 c-6.585,16.239-7.295,44.428-2.637,51.049c1.228,1.747,15.473,11.318,19.096,10.746c2.479-0.392-5.451-28.88-2.477-28.453 c3.781,0.542,4.213,24.237,10.824,33.148c5.999,8.086,17.008,13.201,22.798,15.602c2.824,1.17,9.642,2.825,15.864,4.151 c3.865,0.823,6.972-3.17,5.229-6.717C77.941,116.902,66.731,97.467,57.74,82.986L57.74,82.986z"></path><path stroke-width="0.5" stroke-miterlimit="10" d="M85.916,137.597 c-2.703-1.021-6.38-1.729-9.234-2.184c-10.132-1.613-18.792-4.454-28.78-9.419c-2.399-1.192-13.238-9.805-15.642-11.902 c-3.59-3.137-16.495-9.272-18.958-10.832c-7.13-4.516-4.956-17.216-5.999-17.477c-4.269-1.067-5.087,12.781-4.545,19.496 c0.631,7.826,4.645,14.416,10.827,19.256c6.183,4.838,13.866,6.701,21.337,9.115c17.105,5.525,33.11,7.508,50.527,8.947 c2.519,0.208,3.663-3.09,1.547-4.47C86.702,137.936,86.348,137.76,85.916,137.597L85.916,137.597z"></path><path stroke-width="0.5" stroke-miterlimit="10" d="M12.764,125.309 c-0.8-0.617-1.918-0.613-2.716,0.007c-1.862,1.446-3.803,2.99-5.399,4.608c-2,2.027-5.412,4.803-4.109,7.335 c0.895,1.737,3.301,1.417,4.546,0.954c1.277-0.474,2.769-1.43,3.813-2.305c1.981-1.662,4.333-3.488,6.524-5.243 c1.186-0.949,1.09-2.78-0.187-3.604C14.525,126.603,13.701,126.032,12.764,125.309z"></path></svg>