<svg xmlns="http://www.w3.org/2000/svg" xmlns:xlink="http://www.w3.org/1999/xlink" width="13" height="13" viewBox="0 0 13 13">
  <defs>
    <linearGradient id="linear-gradient" y1="0.455" x2="1" y2="0.469" gradientUnits="objectBoundingBox">
      <stop offset="0" stop-color="#6a16f9"/>
      <stop offset="1" stop-color="#ff0076"/>
    </linearGradient>
  </defs>
  <path id="profile" d="M8.5,2A6.5,6.5,0,1,0,15,8.5,6.5,6.5,0,0,0,8.5,2ZM5.3,12.582c.28-.585,1.982-1.157,3.2-1.157s2.931.572,3.2,1.157a5.151,5.151,0,0,1-6.409,0Zm7.339-.943c-.93-1.131-3.185-1.515-4.134-1.515s-3.2.384-4.134,1.515a5.2,5.2,0,1,1,8.268,0ZM8.5,4.6a2.275,2.275,0,1,0,2.275,2.275A2.269,2.269,0,0,0,8.5,4.6Zm0,3.25a.975.975,0,1,1,.975-.975A.974.974,0,0,1,8.5,7.85Z" transform="translate(-2 -2)" fill="url(#linear-gradient)"/>
</svg>
