<svg xmlns="http://www.w3.org/2000/svg" width="13" height="15" viewBox="0 0 13 15">
  <path id="share-grey" d="M13.833,12.6a2.057,2.057,0,0,0-1.416.58L7.268,10.057a2.565,2.565,0,0,0,.065-.527A2.565,2.565,0,0,0,7.268,9L12.36,5.908a2.111,2.111,0,0,0,1.473.61A2.211,2.211,0,0,0,16,4.259a2.169,2.169,0,1,0-4.333,0,2.564,2.564,0,0,0,.065.527L6.64,7.881a2.111,2.111,0,0,0-1.473-.61A2.211,2.211,0,0,0,3,9.53a2.211,2.211,0,0,0,2.167,2.259,2.111,2.111,0,0,0,1.473-.61l5.142,3.133a2.21,2.21,0,0,0-.058.489,2.111,2.111,0,1,0,2.109-2.2Z" transform="translate(-3 -2)" fill="#a5afc1"/>
</svg>
