<svg xmlns="http://www.w3.org/2000/svg" xmlns:xlink="http://www.w3.org/1999/xlink" width="60.001" height="60" viewBox="0 0 60.001 60">
  <defs>
    <linearGradient id="linear-gradient" x1="0.895" y1="0.23" x2="0.071" y2="0.976" gradientUnits="objectBoundingBox">
      <stop offset="0" stop-color="#ff0076"/>
      <stop offset="1" stop-color="#590f87"/>
    </linearGradient>
  </defs>
  <path id="sp1" d="M9265.477,5999c-4.672,0-8.474-4.108-8.474-9.159,0-45.168-.023-42.25.042-42.577.419-4.632,4.038-8.264,8.432-8.264h39.8a5.73,5.73,0,0,1,5.488,5.932v7.838h.746A5.729,5.729,0,0,1,9317,5958.7v34.366a5.729,5.729,0,0,1-5.487,5.932Zm-4.7-9.159a4.909,4.909,0,0,0,4.7,5.083h46.036a1.794,1.794,0,0,0,1.719-1.856V5985.9h-14.185c-4.828,0-8.759-4.249-8.759-9.47s3.931-9.47,8.759-9.47h14.185V5958.7a1.8,1.8,0,0,0-1.719-1.859h-46.036a7.975,7.975,0,0,1-4.7-1.543Zm33.283-13.41a5.21,5.21,0,0,0,4.989,5.4h14.185v-10.791h-14.185A5.209,5.209,0,0,0,9294.058,5976.432Zm-33.278-28.508a4.888,4.888,0,0,0,4.7,4.847H9307v-7.838a1.8,1.8,0,0,0-1.719-1.859h-39.8A4.889,4.889,0,0,0,9260.779,5947.924Zm36.233,28.508a2.739,2.739,0,1,1,2.731,2.953A2.846,2.846,0,0,1,9297.013,5976.432Z" transform="translate(-9256.999 -5939.001)" fill="url(#linear-gradient)"/>
</svg>
