<svg xmlns="http://www.w3.org/2000/svg" xmlns:xlink="http://www.w3.org/1999/xlink" width="60" height="60" viewBox="0 0 60 60">
  <defs>
    <linearGradient id="linear-gradient" x1="0.829" y1="0.25" x2="0.171" y2="0.779" gradientUnits="objectBoundingBox">
      <stop offset="0" stop-color="#ff0076"/>
      <stop offset="1" stop-color="#590f87"/>
    </linearGradient>
  </defs>
  <path id="sp3" d="M9272.7,5999a5.279,5.279,0,0,1-5.273-5.273v-7.969h-1.641a8.8,8.8,0,0,1-8.789-8.789v-14.062a8.8,8.8,0,0,1,8.789-8.789h1.641v-6.328a8.8,8.8,0,0,1,8.789-8.789h21.563a8.8,8.8,0,0,1,8.789,8.789v6.328h1.641a8.8,8.8,0,0,1,8.789,8.789v14.063a8.8,8.8,0,0,1-8.789,8.789h-1.641v7.969A5.28,5.28,0,0,1,9301.3,5999Zm-1.758-5.273a1.76,1.76,0,0,0,1.758,1.758H9301.3a1.76,1.76,0,0,0,1.758-1.758v-17.344h-32.109Zm35.625-11.484h1.641a5.28,5.28,0,0,0,5.273-5.273v-14.062a5.28,5.28,0,0,0-5.273-5.273h-42.422a5.279,5.279,0,0,0-5.273,5.273v14.063a5.279,5.279,0,0,0,5.273,5.273h1.641v-5.859h-1.055a1.758,1.758,0,0,1,0-3.516h41.25a1.758,1.758,0,0,1,0,3.516h-1.055Zm-35.625-34.453v6.328h32.109v-6.328a5.279,5.279,0,0,0-5.273-5.273h-21.562A5.279,5.279,0,0,0,9270.945,5947.789Zm11.367,43.594a1.758,1.758,0,0,1,0-3.516h9.375a1.758,1.758,0,0,1,0,3.516Zm0-7.5a1.758,1.758,0,0,1,0-3.516h9.375a1.758,1.758,0,0,1,0,3.516Zm-15.937-18.75a1.758,1.758,0,0,1,0-3.516H9272a1.758,1.758,0,0,1,0,3.516Z" transform="translate(-9257 -5939)" fill="url(#linear-gradient)"/>
</svg>
