<svg xmlns="http://www.w3.org/2000/svg" xmlns:xlink="http://www.w3.org/1999/xlink" width="59.999" height="60" viewBox="0 0 59.999 60">
  <defs>
    <linearGradient id="linear-gradient" x1="0.949" y1="0.066" x2="0.052" y2="0.935" gradientUnits="objectBoundingBox">
      <stop offset="0" stop-color="#ff0076"/>
      <stop offset="1" stop-color="#590f87"/>
    </linearGradient>
  </defs>
  <path id="sp4" d="M9269,5999a12,12,0,0,1-12-12v-36a12,12,0,0,1,12-12h36a12,12,0,0,1,12,12v36a12,12,0,0,1-12,12Zm-8-45.6v31.2a10.4,10.4,0,0,0,10.4,10.4h31.2a10.4,10.4,0,0,0,10.4-10.4V5958h-52v-4h52v-.6a10.4,10.4,0,0,0-10.4-10.4h-31.2A10.4,10.4,0,0,0,9261,5953.4Zm14,26.6a2,2,0,1,1,0-4h16a2,2,0,1,1,0,4Zm-10-2a2,2,0,1,1,2,2A2,2,0,0,1,9265,5978Z" transform="translate(-9257.001 -5939.001)" fill="url(#linear-gradient)"/>
</svg>
