<svg xmlns="http://www.w3.org/2000/svg" xmlns:xlink="http://www.w3.org/1999/xlink" width="60" height="60" viewBox="0 0 60 60">
  <defs>
    <linearGradient id="linear-gradient" x1="0.687" y1="0.301" x2="0.03" y2="0.869" gradientUnits="objectBoundingBox">
      <stop offset="0" stop-color="#ff0076"/>
      <stop offset="1" stop-color="#590f87"/>
    </linearGradient>
  </defs>
  <path id="sp5" d="M58.154,43.319l-6.752-7.2a6.07,6.07,0,0,0-4.457-1.969H41.172V21.959a5.724,5.724,0,0,0-5.523-5.893H5.523A5.724,5.724,0,0,0,0,21.959V64.146a5.724,5.724,0,0,0,5.523,5.893h2.22a7.532,7.532,0,0,0,7.194,6.027,7.531,7.531,0,0,0,7.194-6.027H37.869a7.307,7.307,0,0,0,14.387,0h2.22A5.715,5.715,0,0,0,60,64.146V48.075a6.914,6.914,0,0,0-1.846-4.755Zm-43.216,29a4.16,4.16,0,0,1,0-8.3,4.16,4.16,0,0,1,0,8.3Zm22.719-6.027H22.133a7.533,7.533,0,0,0-7.2-6.027,7.533,7.533,0,0,0-7.2,6.027H5.523a2.081,2.081,0,0,1-2.008-2.142V55.977H37.656Zm0-14.062H3.516V21.959a2.081,2.081,0,0,1,2.008-2.142H35.648a2.081,2.081,0,0,1,2.008,2.142Zm7.406,20.089a4.16,4.16,0,1,1,3.891-4.151A4.032,4.032,0,0,1,45.062,72.315Zm11.422-8.169a2.078,2.078,0,0,1-2.008,2.142H52.258a7.533,7.533,0,0,0-7.2-6.027,7.025,7.025,0,0,0-3.891,1.18V37.9h4.016V54.1a1.82,1.82,0,0,0,1.758,1.876h9.539Zm0-11.92H48.7V38.562a2.893,2.893,0,0,1,.213.206l6.752,7.2a3.058,3.058,0,0,1,.816,2.1Z" transform="translate(0 -16.066)" fill="url(#linear-gradient)"/>
</svg>
