<svg xmlns="http://www.w3.org/2000/svg" width="200.5" height="60.498" viewBox="0 0 200.5 60.498">
  <g id="text" transform="translate(-612.091 -434.416)">
    <path id="Path_51" data-name="Path 51" d="M633.513,436.96a29.7,29.7,0,0,1,5.843.694,10.239,10.239,0,0,1,5.054,2.874,10.029,10.029,0,0,1,2.676,4.361,17.726,17.726,0,0,1,.76,5.154v21.739H623.134q-5.353,0-8.194-2.94c-1.894-1.955-2.753-4.68-2.577-8.155.309-4.19,1.784-6.894,4.427-8.133a22.183,22.183,0,0,1,9.449-1.85l12.1-.066q.19-4.295-2.219-5.346a15.288,15.288,0,0,0-6.112-1.063l-15.329-.06V436.96ZM626.9,464.778h11.5v-7.2H627.561a.586.586,0,0,1-.264.066h-.264a10.546,10.546,0,0,0-3.436.694c-1.057.418-1.608,1.4-1.652,2.94q-.133,2.577,1.421,3.04a13.8,13.8,0,0,0,3.535.528Z" transform="translate(0 10.328)" fill="none" stroke="#ff0076" stroke-width="0.5"/>
    <path id="Path_52" data-name="Path 52" d="M637.564,436.96q6.872.066,10.705,2.709t3.832,10.11v22h-9.185V450.836q0-3.634-1.189-4.89t-4.884-1.255l-7.406-.061v27.152h-9.184V436.96Z" transform="translate(34.938 10.328)" fill="none" stroke="#ff0076" stroke-width="0.5"/>
    <path id="Path_53" data-name="Path 53" d="M637.434,470.89a12.5,12.5,0,0,1-6.118-3.733,14.116,14.116,0,0,1-3.067-5.286,24.672,24.672,0,0,1-1.157-6.079v-2.208a7.29,7.29,0,0,1,.061-.9,23.636,23.636,0,0,1,1.156-5.848,14.3,14.3,0,0,1,3.006-5.121,12.4,12.4,0,0,1,6.118-3.8,28.631,28.631,0,0,1,7.163-.887l13.414-.072v7.268H645.853a15.131,15.131,0,0,0-6.14,1.156q-2.32,1.09-2.45,5.451l20.747-.066v7.268H637.263c.088,3.039.864,4.889,2.312,5.55a15.451,15.451,0,0,0,6.211,1l12.224-.072v7.268H644.6A28.619,28.619,0,0,1,637.434,470.89Z" transform="translate(65.15 10.328)" fill="none" stroke="#ff0076" stroke-width="0.5"/>
    <path id="Path_54" data-name="Path 54" d="M633.152,454.226v-6.938h6.613v-1.123a23.976,23.976,0,0,1,1.151-8.524q1.156-2.841,8.364-2.9l8.722-.072v6.745a2.263,2.263,0,0,1-.661.028c-.264-.017-.556-.028-.859-.028-.358,0-.727-.011-1.123-.039s-.771-.033-1.129-.033a15.332,15.332,0,0,0-2.246.165,3.231,3.231,0,0,0-1.586.628,2.488,2.488,0,0,0-.958,1.388,6.569,6.569,0,0,0-.231,1.718v.595a1.879,1.879,0,0,0,.072.529v1l8.722-.072v6.938H649.28V482.11h-9.515V454.226Z" transform="translate(91.972 0)" fill="none" stroke="#ff0076" stroke-width="0.5"/>
    <path id="Path_55" data-name="Path 55" d="M644.337,447.288v-12.62h9.184v12.62h9.714v6.938h-9.714V468.3c-.049,3.48.749,5.506,2.379,6.079a21.037,21.037,0,0,0,6.735.859h.6v6.872h-8.4q-5.211,0-7.858-2.907a11.32,11.32,0,0,1-2.643-7.929V454.226h-6.481v-6.938Z" transform="translate(112.755 0)" fill="none" stroke="#ff0076" stroke-width="0.5"/>
    <path id="Path_56" data-name="Path 56" d="M658.6,464.123H666V436.96h9.184v33.9q0,6.674-3.111,10.077t-9.972,3.4H644.066v-7.07h16.453a6.053,6.053,0,0,0,4.163-1.388,5.237,5.237,0,0,0,1.321-4.1H657.87q-7.061,0-10.77-2.836T643.4,458.5V436.96h9.124v20.753c0,2.549.38,4.267,1.156,5.148s2.406,1.321,4.917,1.321Z" transform="translate(137.153 10.328)" fill="none" stroke="#ff0076" stroke-width="0.5"/>
  </g>
</svg>
