<svg xmlns="http://www.w3.org/2000/svg" xmlns:xlink="http://www.w3.org/1999/xlink" width="33" height="36" viewBox="0 0 33 36">
  <defs>
    <clipPath id="clip-path">
      <rect id="Rectangle_368" data-name="Rectangle 368" width="33" height="36" transform="translate(-169 -7047.584)" fill="#fff" stroke="#707070" stroke-width="1"/>
    </clipPath>
    <linearGradient id="linear-gradient" x1="0.927" y1="0.158" x2="0.063" y2="0.839" gradientUnits="objectBoundingBox">
      <stop offset="0" stop-color="#590f87"/>
      <stop offset="1" stop-color="#ff0076"/>
    </linearGradient>
    <linearGradient id="linear-gradient-2" x1="0.869" y1="0.013" x2="-0.749" y2="0.822" xlink:href="#linear-gradient"/>
  </defs>
  <g id="title-icon1" transform="translate(169 7047.584)" clip-path="url(#clip-path)">
    <g id="explosion" transform="translate(-169 -7046.946)">
      <path id="Path_29514" data-name="Path 29514" d="M23.049.213,36.125,9.874l3.508-7.692a1.08,1.08,0,0,1,2.063.448v8.158l8.323-5.427A1.08,1.08,0,0,1,51.5,6.88l-5.752,8.346,4.563-.115a1.08,1.08,0,0,1,.422,2.085L46.6,18.819l6.59,4.133a1.08,1.08,0,0,1-.764,1.978L44.8,23.573l1.561,3.044a1.08,1.08,0,0,1-1.625,1.346l-2.7-2.105.325,8.331a1.08,1.08,0,0,1-2.077.456l-3.442-8.295-2.167,2.917a1.08,1.08,0,0,1-1.916-.9l.768-3.129-9.011,4.929a1.08,1.08,0,0,1-1.341-1.648l6.667-7.829L23.783,20.4a1.081,1.081,0,0,1-.377-2.071l7.2-3.106L21.511,1.684A1.08,1.08,0,0,1,23.049.213Z" transform="translate(-21.327 -0.001)" fill="url(#linear-gradient)"/>
      <path id="Path_29515" data-name="Path 29515" d="M26.516,30.1a1.079,1.079,0,0,0,.848-1.1l-.325-8.331,2.7,2.105a1.08,1.08,0,0,0,1.625-1.346L29.806,18.39l7.624,1.359a1.08,1.08,0,0,0,.764-1.978L31.6,13.636l4.133-1.623a1.08,1.08,0,0,0-.422-2.085l-4.563.115L36.5,1.7A1.07,1.07,0,0,0,36.388.329,1.069,1.069,0,0,0,35.024.179L26.7,5.606V5.59L24.134,9.147l-2.807,9.71a6.211,6.211,0,0,0,.518,2.309l3.442,8.295A1.079,1.079,0,0,0,26.516,30.1Z" transform="translate(-6.332 5.182)" fill="url(#linear-gradient-2)"/>
      <path id="Path_29516" data-name="Path 29516" d="M99.8,82.743,89.423,75.077l7.209,10.732a1.08,1.08,0,0,1-.468,1.594L91.081,89.6l4.37.208a1.08,1.08,0,0,1,.771,1.78l-5.044,5.924L98.146,93.7A1.08,1.08,0,0,1,99.713,94.9l-.3,1.2.759-1.021a1.081,1.081,0,0,1,1.865.23L104.4,101l-.226-5.794a1.08,1.08,0,0,1,1.743-.894l1.32,1.028-.716-1.4a1.08,1.08,0,0,1,1.15-1.557l5.347.953-4.608-2.89a1.08,1.08,0,0,1,.179-1.921l1.595-.626-1.823.046a1.08,1.08,0,0,1-.916-1.693l4.449-6.455-6.326,4.125a1.08,1.08,0,0,1-1.67-.9V76.9l-2.475,5.426a1.08,1.08,0,0,1-1.625.42Z" transform="translate(-85.348 -70.864)" fill="#fff"/>
      <path id="Path_29517" data-name="Path 29517" d="M101.047,75.079,94.72,79.2a1.079,1.079,0,0,1-1.406-.2L92.3,80.476a.95.95,0,0,0,.806,1.49l1.6-.04-1.4.551a.95.95,0,0,0-.158,1.69l4.055,2.543-4.7-.838a.951.951,0,0,0-1.012,1.37l.63,1.228-1.162-.9a.95.95,0,0,0-1.534.787l.072,1.835a1.082,1.082,0,0,1,1.7.408l2.358,5.685-.226-5.794a1.08,1.08,0,0,1,1.743-.894l1.32,1.028-.716-1.4a1.08,1.08,0,0,1,1.15-1.557l5.347.953-4.608-2.89a1.08,1.08,0,0,1,.179-1.921l1.595-.626-1.823.046a1.08,1.08,0,0,1-.916-1.693Z" transform="translate(-74.5 -66.147)" fill="#02072e" opacity="0.2"/>
    </g>
  </g>
</svg>
