<svg id="twitter-round" xmlns="http://www.w3.org/2000/svg" width="17" height="15" viewBox="0 0 17 15">
  <g id="Group_233" data-name="Group 233" transform="translate(0 0)">
    <path id="Path_10" data-name="Path 10" d="M17,1.776a6.822,6.822,0,0,1-2.008.6A3.725,3.725,0,0,0,16.525.282a6.64,6.64,0,0,1-2.21.916A3.37,3.37,0,0,0,11.769,0,3.644,3.644,0,0,0,8.286,3.786a4.221,4.221,0,0,0,.081.863A9.631,9.631,0,0,1,1.184.69,4.064,4.064,0,0,0,.707,2.6,3.885,3.885,0,0,0,2.255,5.748,3.236,3.236,0,0,1,.68,5.282v.042A3.739,3.739,0,0,0,3.472,9.043a3.219,3.219,0,0,1-.914.125A2.845,2.845,0,0,1,1.9,9.1a3.569,3.569,0,0,0,3.257,2.637A6.659,6.659,0,0,1,.834,13.353,6.016,6.016,0,0,1,0,13.3,9.257,9.257,0,0,0,5.347,15c6.413,0,9.92-5.769,9.92-10.77,0-.167-.005-.329-.013-.489A7.313,7.313,0,0,0,17,1.776Z" fill="#fff"/>
  </g>
</svg>
