<svg xmlns="http://www.w3.org/2000/svg" xmlns:xlink="http://www.w3.org/1999/xlink" width="13" height="13" viewBox="0 0 13 13">
  <defs>
    <linearGradient id="linear-gradient" y1="0.526" x2="1" y2="0.536" gradientUnits="objectBoundingBox">
      <stop offset="0" stop-color="#ff0076"/>
      <stop offset="1" stop-color="#6a16f9"/>
    </linearGradient>
  </defs>
  <path id="twitter" d="M170.535,57.412h-7.128a2.951,2.951,0,0,0-2.936,2.949v7.1a2.951,2.951,0,0,0,2.936,2.948h7.128a2.951,2.951,0,0,0,2.936-2.948v-7.1A2.951,2.951,0,0,0,170.535,57.412Zm.783,3.792a3.59,3.59,0,0,1-.89.926c.005.078.005.154.005.233a5.071,5.071,0,0,1-7.814,4.3,3.585,3.585,0,0,0,2.645-.744A1.789,1.789,0,0,1,163.6,64.67a1.86,1.86,0,0,0,.336.033,1.816,1.816,0,0,0,.471-.064,1.79,1.79,0,0,1-1.431-1.762v-.023a1.793,1.793,0,0,0,.808.224,1.794,1.794,0,0,1-.551-2.389,5.056,5.056,0,0,0,3.676,1.874,1.858,1.858,0,0,1-.045-.408,1.785,1.785,0,0,1,3.086-1.224,3.6,3.6,0,0,0,1.133-.436,1.806,1.806,0,0,1-.785.99,3.511,3.511,0,0,0,1.024-.282Z" transform="translate(-160.471 -57.412)" fill="url(#linear-gradient)"/>
</svg>
