<svg xmlns="http://www.w3.org/2000/svg" width="15" height="13" viewBox="0 0 15 13">
  <path id="view-all" d="M14.681,49.091a.58.58,0,0,1-.788-.259h0c-.9-1.786-3.284-4.346-6.393-4.346-2.788,0-5.266,2.107-6.393,4.346a.581.581,0,0,1-.789.258.6.6,0,0,1-.254-.8c1.295-2.579,4.141-5,7.436-5,3.757,0,6.448,3.029,7.436,5A.6.6,0,0,1,14.681,49.091ZM.228,42.672l1.3,1.2a.578.578,0,0,0,.828-.043.606.606,0,0,0-.043-.844l-1.3-1.2a.578.578,0,0,0-.828.043.606.606,0,0,0,.043.844Zm13.24,1.2,1.3-1.2a.606.606,0,0,0,.043-.844.578.578,0,0,0-.828-.043l-1.3,1.2a.606.606,0,0,0-.043.844A.578.578,0,0,0,13.467,43.873ZM7.5,41.49a.592.592,0,0,0,.586-.6V39.1a.586.586,0,1,0-1.172,0v1.795a.592.592,0,0,0,.586.6Zm2.878,7.069A2.879,2.879,0,1,1,7.5,45.619,2.913,2.913,0,0,1,10.378,48.559Zm-1.172,0A1.707,1.707,0,1,0,7.5,50.3,1.728,1.728,0,0,0,9.206,48.559Z" transform="translate(0 -38.5)" fill="#fff"/>
</svg>
