<svg xmlns="http://www.w3.org/2000/svg" width="15" height="15" viewBox="0 0 15 15">
  <g id="whatsapp" transform="translate(-2.05 -2)">
    <g id="Group_2973" data-name="Group 2973" transform="translate(2.05 2)">
      <g id="Group_2972" data-name="Group 2972">
        <path id="Path_26366" data-name="Path 26366" d="M14.864,4.182A7.454,7.454,0,0,0,3.105,13.145L2.05,17l3.957-1.035a7.5,7.5,0,0,0,3.573.907h0A7.464,7.464,0,0,0,17.05,9.44,7.367,7.367,0,0,0,14.864,4.182ZM9.58,15.613h0a6.251,6.251,0,0,1-3.166-.863l-.226-.135-2.352.615.626-2.28-.151-.233a6.2,6.2,0,0,1,9.648-7.65A6.172,6.172,0,0,1,9.58,15.613Zm3.407-4.62c-.188-.09-1.108-.54-1.274-.608s-.294-.09-.422.09-.482.607-.588.728-.219.142-.407.045a5.028,5.028,0,0,1-1.5-.922,5.679,5.679,0,0,1-1.04-1.29c-.106-.188-.015-.285.083-.382.083-.082.188-.218.279-.323a1.3,1.3,0,0,0,.188-.307A.343.343,0,0,0,8.291,7.7c-.045-.09-.422-1-.573-1.38S7.409,6,7.3,6H6.934a.679.679,0,0,0-.5.233,2.111,2.111,0,0,0-.648,1.552A3.6,3.6,0,0,0,6.55,9.7a8.258,8.258,0,0,0,3.188,2.805,9.153,9.153,0,0,0,1.063.39,2.6,2.6,0,0,0,1.176.075,1.9,1.9,0,0,0,1.259-.885,1.459,1.459,0,0,0,.106-.885C13.289,11.12,13.176,11.082,12.987,10.993Z" transform="translate(-2.05 -2)" fill="#fff"/>
      </g>
    </g>
  </g>
</svg>
