<svg xmlns="http://www.w3.org/2000/svg" width="148" height="47.999" viewBox="0 0 148 47.999">
  <g id="footer-logo-light" transform="translate(-315 -26)">
    <rect id="divider" width="1" height="20" transform="translate(366 40)" fill="#fff" opacity="0.3"/>
    <g id="icon" transform="translate(-106.997 -78.624)">
      <path id="Path_33" data-name="Path 33" d="M456,140.823a16.509,16.509,0,0,1,1.778,10.591,17.5,17.5,0,0,1-5.22,9.8,17.977,17.977,0,0,1-10.263,4.8c-.24.024-.48.061-.721.075l-.724.044c-.484.007-.968.018-1.452-.009a18.046,18.046,0,0,1-2.884-.35,18.872,18.872,0,0,1-2.793-.812,20.456,20.456,0,0,1-2.628-1.241,19.938,19.938,0,0,1-2.394-1.646,18.661,18.661,0,0,1-2.107-2,17.758,17.758,0,0,1-1.751-2.315,16.907,16.907,0,0,1-1.361-2.556,17.911,17.911,0,0,1-.995-11.269,17.484,17.484,0,0,1,5.876-9.425,16.57,16.57,0,0,1,10.073-3.777l-.65.159-.323.077-.32.094c-.212.064-.425.123-.635.19l-.623.223c-.208.069-.411.154-.613.239s-.406.163-.6.256c-.393.194-.792.365-1.168.585a17.13,17.13,0,0,0-4.1,3.088c-.077.073-.148.152-.219.231l-.214.235c-.14.159-.292.307-.42.476l-.4.493-.1.123-.092.129-.183.258-.183.257c-.062.085-.123.17-.177.26l-.337.532c-.117.174-.212.361-.315.544s-.206.364-.3.55a18.173,18.173,0,0,0-.965,2.3,16.727,16.727,0,0,0-.6,2.4,14.8,14.8,0,0,0-.226,2.451,15.266,15.266,0,0,0,.142,2.446,17.838,17.838,0,0,0,.51,2.388,16.333,16.333,0,0,0,.867,2.274,15.613,15.613,0,0,0,1.194,2.113,14.724,14.724,0,0,0,1.5,1.9,15.975,15.975,0,0,0,1.766,1.652,16.392,16.392,0,0,0,4.187,2.409,16.99,16.99,0,0,0,2.318.7,14.986,14.986,0,0,0,2.4.342c.4.032.809.03,1.215.034l.608-.021c.2,0,.4-.029.607-.042a15.9,15.9,0,0,0,2.406-.393,17.819,17.819,0,0,0,2.327-.755,15.825,15.825,0,0,0,2.192-1.1c.356-.2.693-.439,1.035-.669l.495-.369c.167-.121.32-.26.481-.388a16.186,16.186,0,0,0,1.781-1.724c.144-.15.268-.317.4-.476l.2-.241c.065-.081.125-.166.187-.249.122-.169.253-.332.371-.5l.351-.519c.118-.173.217-.357.327-.536l.161-.27.081-.135.072-.14c.191-.373.394-.742.558-1.129a16.4,16.4,0,0,0,.87-2.379A17.106,17.106,0,0,0,456.9,146c0-.435-.05-.866-.08-1.3-.018-.218-.055-.433-.082-.65s-.056-.435-.1-.65l-.12-.649c-.046-.215-.1-.429-.154-.644l-.079-.323c-.029-.107-.064-.212-.1-.318Z" transform="translate(0 -19.835)" fill="#fff"/>
      <g id="Group_9" data-name="Group 9" transform="translate(430.524 104.624)">
        <path id="Path_34" data-name="Path 34" d="M467.984,196.837c-.155-2.938-2.553-7.2-4.758-9.683s-5.366-5.7-5.816-8.543c-.39-2.467,2.514-12.858,3.3-15.592a.3.3,0,0,1,.549-.047,8.608,8.608,0,0,1,.282,5.391,29.134,29.134,0,0,0-.639,9.387c.266,1.683,2.09,4.758,2.864,3.571,1.1-1.693-.949-7.8.531-10.09a.261.261,0,0,1,.47.066,51.6,51.6,0,0,0,2.626,7.834c1.978,4.049,4,4.566,4.192,8.294S467.984,196.837,467.984,196.837Z" transform="translate(-457.374 -148.838)" fill="#fff"/>
        <path id="Path_35" data-name="Path 35" d="M480.467,104.624c.155,2.938,2.553,7.2,4.758,9.683s5.366,5.7,5.816,8.544c.39,2.466-2.514,12.857-3.3,15.592a.3.3,0,0,1-.549.047,8.608,8.608,0,0,1-.282-5.391,29.132,29.132,0,0,0,.639-9.387c-.266-1.682-2.09-4.759-2.864-3.571-1.1,1.692.949,7.8-.531,10.09a.261.261,0,0,1-.47-.066,51.6,51.6,0,0,0-2.626-7.834c-1.978-4.049-4-4.565-4.192-8.294S480.467,104.624,480.467,104.624Z" transform="translate(-472.184 -104.624)" fill="#fff"/>
      </g>
      <circle id="Ellipse_1" data-name="Ellipse 1" cx="2.033" cy="2.033" r="2.033" transform="matrix(0.953, -0.304, 0.304, 0.953, 446.884, 111.751)" fill="#fff"/>
      <path id="Path_36" data-name="Path 36" d="M553.809,155.869a.946.946,0,1,1-.946-.946A.946.946,0,0,1,553.809,155.869Z" transform="translate(-98.663 -38.225)" fill="#fff"/>
      <path id="Path_37" data-name="Path 37" d="M.946,0A.946.946,0,1,1,0,.946.946.946,0,0,1,.946,0Z" transform="translate(443.158 109.944)" fill="#fff"/>
    </g>
    <g id="text" transform="translate(-230.341 -396.668)">
      <path id="Path_51" data-name="Path 51" d="M620.811,436.96a11.882,11.882,0,0,1,2.337.278,4.1,4.1,0,0,1,2.022,1.15,4.013,4.013,0,0,1,1.071,1.745,7.093,7.093,0,0,1,.3,2.062v8.7h-9.887a4.35,4.35,0,0,1-3.278-1.176,4.174,4.174,0,0,1-1.031-3.262c.123-1.676.714-2.758,1.771-3.254a8.874,8.874,0,0,1,3.78-.74l4.84-.026q.076-1.718-.888-2.139a6.117,6.117,0,0,0-2.445-.425l-6.133-.024V436.96Zm-2.646,11.129h4.6v-2.881H618.43a.234.234,0,0,1-.106.026h-.106a4.219,4.219,0,0,0-1.375.278,1.158,1.158,0,0,0-.661,1.176q-.053,1.031.568,1.216a5.522,5.522,0,0,0,1.414.211Z" transform="translate(0 2.757)" fill="#fff"/>
      <path id="Path_52" data-name="Path 52" d="M627.179,436.96a7.6,7.6,0,0,1,4.283,1.084q1.533,1.058,1.533,4.045v8.8H629.32v-8.38a2.922,2.922,0,0,0-.476-1.956,2.745,2.745,0,0,0-1.954-.5l-2.963-.024v10.863h-3.674V436.96Z" transform="translate(9.482 2.757)" fill="#fff"/>
      <path id="Path_53" data-name="Path 53" d="M631.23,450.534a5,5,0,0,1-2.447-1.494,5.648,5.648,0,0,1-1.227-2.115,9.87,9.87,0,0,1-.463-2.432v-.883a2.91,2.91,0,0,1,.024-.359,9.455,9.455,0,0,1,.463-2.339,5.722,5.722,0,0,1,1.2-2.049,4.96,4.96,0,0,1,2.447-1.52,11.455,11.455,0,0,1,2.866-.355l5.366-.029v2.908H634.6a6.053,6.053,0,0,0-2.456.463q-.928.436-.98,2.181l8.3-.026v2.908h-8.3c.035,1.216.346,1.956.925,2.22a6.182,6.182,0,0,0,2.485.4l4.89-.029v2.908H634.1A11.45,11.45,0,0,1,631.23,450.534Z" transform="translate(17.68 2.757)" fill="#fff"/>
      <path id="Path_54" data-name="Path 54" d="M633.152,442.493v-2.776H635.8v-.449a9.592,9.592,0,0,1,.46-3.41q.463-1.137,3.346-1.161l3.489-.029v2.7a.906.906,0,0,1-.264.011c-.106-.007-.223-.011-.344-.011-.143,0-.291,0-.449-.015s-.308-.013-.452-.013a6.137,6.137,0,0,0-.9.066,1.293,1.293,0,0,0-.635.251,1,1,0,0,0-.383.555,2.631,2.631,0,0,0-.093.687v.238a.751.751,0,0,0,.029.211v.4l3.489-.029v2.776H639.6v11.156H635.8V442.493Z" transform="translate(24.945 0)" fill="#fff"/>
      <path id="Path_55" data-name="Path 55" d="M640.449,439.717v-5.049h3.674v5.049h3.886v2.776h-3.886v5.631c-.02,1.392.3,2.2.952,2.432a8.416,8.416,0,0,0,2.694.344h.24v2.749h-3.36a4.037,4.037,0,0,1-3.144-1.163,4.529,4.529,0,0,1-1.057-3.172v-6.82h-2.593v-2.776Z" transform="translate(30.583 0)" fill="#fff"/>
      <path id="Path_56" data-name="Path 56" d="M649.48,447.827h2.963V436.96h3.674v13.561a5.8,5.8,0,0,1-1.245,4.031,5.164,5.164,0,0,1-3.989,1.361h-7.217v-2.828h6.582a2.422,2.422,0,0,0,1.665-.555,2.1,2.1,0,0,0,.529-1.639h-3.254a7,7,0,0,1-4.309-1.134q-1.48-1.14-1.48-4.179V436.96h3.65v8.3a3.255,3.255,0,0,0,.463,2.06,2.636,2.636,0,0,0,1.967.529Z" transform="translate(37.224 2.757)" fill="#fff"/>
    </g>
  </g>
</svg>
